HIERARCHY
ROOT Hips
{
	OFFSET 0.000000 71.427986 0.000000
	CHANNELS 6 Xposition Yposition Zposition Xrotation Yrotation Zrotation
	JOINT Pelvis
	{
		OFFSET 0.000000 0.000000 0.000000
		CHANNELS 3 Xrotation Yrotation Zrotation
		JOINT LeftUpLeg
		{
			OFFSET 6.797100 -2.508499 -1.318700
			CHANNELS 3 Xrotation Yrotation Zrotation
			JOINT LeftLeg
			{
				OFFSET 0.069008 -29.241863 0.690200
				CHANNELS 3 Xrotation Yrotation Zrotation
				JOINT LeftFoot
				{
					OFFSET -0.069008 -29.568123 -0.266800
					CHANNELS 3 Xrotation Yrotation Zrotation
					JOINT LeftToeBase
					{
						OFFSET 3.145500 -8.631000 16.059900
						CHANNELS 3 Xrotation Yrotation Zrotation
						End Site
						{
							OFFSET 0.000000 18.501587 0.000000
						}
					}
				}
			}
			JOINT Left_ShortSleeve
			{
				OFFSET 0.265923 -10.480953 1.153800
				CHANNELS 3 Xrotation Yrotation Zrotation
				End Site
				{
					OFFSET 1.725763 19.823879 0.000000
				}
			}
		}
		JOINT RightUpLeg
		{
			OFFSET -6.797100 -2.508499 -1.318700
			CHANNELS 3 Xrotation Yrotation Zrotation
			JOINT RightLeg
			{
				OFFSET -0.082453 -29.241932 0.688000
				CHANNELS 3 Xrotation Yrotation Zrotation
				JOINT RightFoot
				{
					OFFSET 0.082453 -29.568058 -0.264600
					CHANNELS 3 Xrotation Yrotation Zrotation
					JOINT RightToeBase
					{
						OFFSET -3.115300 -8.682800 16.113400
						CHANNELS 3 Xrotation Yrotation Zrotation
						End Site
						{
							OFFSET 0.000000 18.567114 0.000000
						}
					}
				}
			}
			JOINT Right_ShortSleeve
			{
				OFFSET -0.265923 -10.480953 1.153800
				CHANNELS 3 Xrotation Yrotation Zrotation
				End Site
				{
					OFFSET -1.725766 19.823910 0.000000
				}
			}
		}
	}
	JOINT Spine
	{
		OFFSET 0.000000 13.368103 0.470500
		CHANNELS 3 Xrotation Yrotation Zrotation
		JOINT Spine1
		{
			OFFSET 0.147000 13.837402 0.538800
			CHANNELS 3 Xrotation Yrotation Zrotation
			JOINT Spine2
			{
				OFFSET 0.168000 16.242897 -1.435500
				CHANNELS 3 Xrotation Yrotation Zrotation
				JOINT Neck
				{
					OFFSET 0.217200 18.631500 -1.679100
					CHANNELS 3 Xrotation Yrotation Zrotation
					JOINT Head
					{
						OFFSET 0.000000 6.599396 1.385900
						CHANNELS 3 Xrotation Yrotation Zrotation
						JOINT Hat
						{
							OFFSET -0.532200 27.220596 -10.096100
							CHANNELS 3 Xrotation Yrotation Zrotation
							End Site
							{
								OFFSET 0.000000 22.029861 0.000000
							}
						}
						JOINT HairD
						{
							OFFSET -10.777400 17.437393 -1.325900
							CHANNELS 3 Xrotation Yrotation Zrotation
							JOINT HairD1
							{
								OFFSET -3.290299 -11.051193 1.062200
								CHANNELS 3 Xrotation Yrotation Zrotation
								End Site
								{
									OFFSET 0.000000 11.579437 0.000000
								}
							}
						}
						JOINT HairB
						{
							OFFSET -10.777400 17.437393 1.467900
							CHANNELS 3 Xrotation Yrotation Zrotation
							JOINT HairB1
							{
								OFFSET -1.561200 -12.956299 3.590200
								CHANNELS 3 Xrotation Yrotation Zrotation
								End Site
								{
									OFFSET 0.000000 13.534866 0.000000
								}
							}
						}
						JOINT HairA
						{
							OFFSET 9.713100 17.437393 1.467900
							CHANNELS 3 Xrotation Yrotation Zrotation
							JOINT HairA1
							{
								OFFSET 1.561200 -12.956299 3.590200
								CHANNELS 3 Xrotation Yrotation Zrotation
								End Site
								{
									OFFSET 0.000000 13.534866 0.000000
								}
							}
						}
						JOINT HairC
						{
							OFFSET 9.713100 17.437393 -1.325900
							CHANNELS 3 Xrotation Yrotation Zrotation
							JOINT HairC1
							{
								OFFSET 3.290300 -11.051193 1.062200
								CHANNELS 3 Xrotation Yrotation Zrotation
								End Site
								{
									OFFSET 0.000000 11.579437 0.000000
								}
							}
						}
					}
				}
				JOINT LeftShoulder
				{
					OFFSET 5.101800 15.108002 -2.763700
					CHANNELS 3 Xrotation Yrotation Zrotation
					JOINT LeftArm
					{
						OFFSET 9.825497 2.506317 -1.597400
						CHANNELS 3 Xrotation Yrotation Zrotation
						JOINT LeftForeArm
						{
							OFFSET 21.966244 0.000000 0.000000
							CHANNELS 3 Xrotation Yrotation Zrotation
							JOINT LeftHand
							{
								OFFSET 33.879036 0.000000 0.000000
								CHANNELS 3 Xrotation Yrotation Zrotation
								JOINT LeftHandThumb1
								{
									OFFSET 6.715286 -2.359680 3.363841
									CHANNELS 3 Xrotation Yrotation Zrotation
									JOINT LeftHandThumb2
									{
										OFFSET 2.507072 -1.447464 1.447461
										CHANNELS 3 Xrotation Yrotation Zrotation
										JOINT LeftHandThumb3
										{
											OFFSET 2.898338 -1.673355 1.673357
											CHANNELS 3 Xrotation Yrotation Zrotation
											End Site
											{
												OFFSET -0.295959 3.727692 -0.131651
											}
										}
									}
								}
								JOINT LeftHandIndex1
								{
									OFFSET 14.190811 -0.254547 3.840278
									CHANNELS 3 Xrotation Yrotation Zrotation
									JOINT LeftHandIndex2
									{
										OFFSET 3.551727 0.000000 -0.000000
										CHANNELS 3 Xrotation Yrotation Zrotation
										JOINT LeftHandIndex3
										{
											OFFSET 2.894196 0.000000 0.000000
											CHANNELS 3 Xrotation Yrotation Zrotation
											End Site
											{
												OFFSET -1.000603 2.690872 0.366626
											}
										}
									}
								}
								JOINT LeftHandMiddle1
								{
									OFFSET 13.776489 0.000000 0.000000
									CHANNELS 3 Xrotation Yrotation Zrotation
									JOINT LeftHandMiddle2
									{
										OFFSET 3.438232 0.000000 0.000000
										CHANNELS 3 Xrotation Yrotation Zrotation
										JOINT LeftHandMiddle3
										{
											OFFSET 3.691551 0.000000 0.000000
											CHANNELS 3 Xrotation Yrotation Zrotation
											End Site
											{
												OFFSET -1.082298 3.499527 0.457670
											}
										}
									}
								}
								JOINT LeftHandRing1
								{
									OFFSET 13.966164 -0.268127 -3.067488
									CHANNELS 3 Xrotation Yrotation Zrotation
									JOINT LeftHandRing2
									{
										OFFSET 3.162567 0.000000 0.000000
										CHANNELS 3 Xrotation Yrotation Zrotation
										JOINT LeftHandRing3
										{
											OFFSET 3.324348 0.000000 0.000000
											CHANNELS 3 Xrotation Yrotation Zrotation
											End Site
											{
												OFFSET -0.861900 3.184998 0.405154
											}
										}
									}
								}
								JOINT LeftHandPinky1
								{
									OFFSET 13.131393 -0.168503 -5.746925
									CHANNELS 3 Xrotation Yrotation Zrotation
									JOINT LeftHandPinky2
									{
										OFFSET 2.849182 0.000000 0.000000
										CHANNELS 3 Xrotation Yrotation Zrotation
										JOINT LeftHandPinky3
										{
											OFFSET 2.805038 0.000000 0.000000
											CHANNELS 3 Xrotation Yrotation Zrotation
											End Site
											{
												OFFSET -0.882500 2.642609 0.325652
											}
										}
									}
								}
							}
							JOINT Left_Sleeve
							{
								OFFSET 6.592125 -0.646545 0.805568
								CHANNELS 3 Xrotation Yrotation Zrotation
								End Site
								{
									OFFSET -0.000179 20.275787 -0.000000
								}
							}
						}
					}
				}
				JOINT RightShoulder
				{
					OFFSET -5.731700 15.108002 -2.763700
					CHANNELS 3 Xrotation Yrotation Zrotation
					JOINT RightArm
					{
						OFFSET -9.825497 2.506317 -1.597400
						CHANNELS 3 Xrotation Yrotation Zrotation
						JOINT RightForeArm
						{
							OFFSET -21.966242 0.000000 0.000000
							CHANNELS 3 Xrotation Yrotation Zrotation
							JOINT RightHand
							{
								OFFSET -33.879032 0.000000 0.000000
								CHANNELS 3 Xrotation Yrotation Zrotation
								JOINT RightHandThumb1
								{
									OFFSET -6.715286 -2.359680 3.363841
									CHANNELS 3 Xrotation Yrotation Zrotation
									JOINT RightHandThumb2
									{
										OFFSET -2.507072 -1.447464 1.447461
										CHANNELS 3 Xrotation Yrotation Zrotation
										JOINT RightHandThumb3
										{
											OFFSET -2.898338 -1.673355 1.673357
											CHANNELS 3 Xrotation Yrotation Zrotation
											End Site
											{
												OFFSET 0.295959 3.727692 -0.131651
											}
										}
									}
								}
								JOINT RightHandIndex1
								{
									OFFSET -14.190811 -0.254547 3.840278
									CHANNELS 3 Xrotation Yrotation Zrotation
									JOINT RightHandIndex2
									{
										OFFSET -3.551727 0.000000 -0.000000
										CHANNELS 3 Xrotation Yrotation Zrotation
										JOINT RightHandIndex3
										{
											OFFSET -2.894196 0.000000 0.000000
											CHANNELS 3 Xrotation Yrotation Zrotation
											End Site
											{
												OFFSET 1.000603 2.690872 0.366626
											}
										}
									}
								}
								JOINT RightHandMiddle1
								{
									OFFSET -13.776489 0.000000 0.000000
									CHANNELS 3 Xrotation Yrotation Zrotation
									JOINT RightHandMiddle2
									{
										OFFSET -3.438232 0.000000 0.000000
										CHANNELS 3 Xrotation Yrotation Zrotation
										JOINT RightHandMiddle3
										{
											OFFSET -3.691551 0.000000 0.000000
											CHANNELS 3 Xrotation Yrotation Zrotation
											End Site
											{
												OFFSET 1.082298 3.499527 0.457670
											}
										}
									}
								}
								JOINT RightHandRing1
								{
									OFFSET -13.966164 -0.268127 -3.067488
									CHANNELS 3 Xrotation Yrotation Zrotation
									JOINT RightHandRing2
									{
										OFFSET -3.162567 0.000000 0.000000
										CHANNELS 3 Xrotation Yrotation Zrotation
										JOINT RightHandRing3
										{
											OFFSET -3.324348 0.000000 0.000000
											CHANNELS 3 Xrotation Yrotation Zrotation
											End Site
											{
												OFFSET 0.861900 3.184998 0.405154
											}
										}
									}
								}
								JOINT RightHandPinky1
								{
									OFFSET -13.131393 -0.168503 -5.746925
									CHANNELS 3 Xrotation Yrotation Zrotation
									JOINT RightHandPinky2
									{
										OFFSET -2.849182 0.000000 0.000000
										CHANNELS 3 Xrotation Yrotation Zrotation
										JOINT RightHandPinky3
										{
											OFFSET -2.805038 0.000000 0.000000
											CHANNELS 3 Xrotation Yrotation Zrotation
											End Site
											{
												OFFSET 0.882500 2.642609 0.325652
											}
										}
									}
								}
							}
							JOINT Right_Sleeve
							{
								OFFSET -6.592125 -0.646545 0.805568
								CHANNELS 3 Xrotation Yrotation Zrotation
								End Site
								{
									OFFSET 0.000179 20.275787 -0.000000
								}
							}
						}
					}
				}
				JOINT Bind_Right_JacketString
				{
					OFFSET -3.534800 11.969597 7.200700
					CHANNELS 3 Xrotation Yrotation Zrotation
					JOINT Bind_Right_JacketString1
					{
						OFFSET -0.319900 -6.102600 2.794100
						CHANNELS 3 Xrotation Yrotation Zrotation
						End Site
						{
							OFFSET 0.000000 6.719452 0.000000
						}
					}
				}
				JOINT Bind_Left_JacketString
				{
					OFFSET 2.904800 11.969597 7.200700
					CHANNELS 3 Xrotation Yrotation Zrotation
					JOINT Bind_Left_JacketString1
					{
						OFFSET 0.364800 -5.904503 3.186800
						CHANNELS 3 Xrotation Yrotation Zrotation
						End Site
						{
							OFFSET 0.000000 6.719513 0.000000
						}
					}
				}
				JOINT HairE
				{
					OFFSET 5.915200 17.612701 -11.592200
					CHANNELS 3 Xrotation Yrotation Zrotation
					JOINT HairE1
					{
						OFFSET 0.289200 -7.171898 -1.284500
						CHANNELS 3 Xrotation Yrotation Zrotation
						End Site
						{
							OFFSET 0.000000 7.291756 0.000000
						}
					}
				}
				JOINT HairF
				{
					OFFSET -0.864800 17.612701 -11.592200
					CHANNELS 3 Xrotation Yrotation Zrotation
					JOINT HairF1
					{
						OFFSET 0.000000 -14.087097 -2.127501
						CHANNELS 3 Xrotation Yrotation Zrotation
						End Site
						{
							OFFSET 0.000000 14.246841 0.000000
						}
					}
				}
				JOINT HairG
				{
					OFFSET -8.087700 17.612701 -11.592200
					CHANNELS 3 Xrotation Yrotation Zrotation
					JOINT HairG1
					{
						OFFSET -0.293600 -6.081398 -0.910100
						CHANNELS 3 Xrotation Yrotation Zrotation
						End Site
						{
							OFFSET 0.000000 6.156120 0.000000
						}
					}
				}
			}
		}
	}
	JOINT Pouch
	{
		OFFSET 0.000000 4.394501 10.847300
		CHANNELS 3 Xrotation Yrotation Zrotation
		End Site
		{
			OFFSET 0.000000 21.880577 0.000000
		}
	}
	JOINT Bag
	{
		OFFSET -13.229000 4.813004 -0.593300
		CHANNELS 3 Xrotation Yrotation Zrotation
		End Site
		{
			OFFSET 0.000000 21.880577 0.000000
		}
	}
	JOINT OccupyGuyFacialAnim_Joint
	{
		OFFSET 1.000000 -70.206398 -1.655000
		CHANNELS 3 Xrotation Yrotation Zrotation
		End Site
		{
			OFFSET 0.000000 21.880577 0.000000
		}
	}
}
MOTION
Frames: 4
Frame Time: 0.016667
-0.737683 60.645096 0.760032 11.682572 -49.446396 11.201347 -0.000001 -0.000002 0.000000 -62.355071 29.780806 41.562364 46.271694 -20.448647 3.240060 -1.174270 1.237435 -9.131574 0.000000 -0.000002 -0.000000 0.000005 0.000000 -0.000000 -32.413728 -1.686873 -23.577116 54.930615 2.258415 -6.882803 -29.998751 -3.201486 23.245366 0.000000 -0.000002 -0.000000 0.000001 0.000003 -0.000002 10.969130 2.808468 -1.964432 6.100704 5.566531 -4.284681 -5.786932 6.328148 -3.046181 2.318916 9.363317 -0.265303 -4.146747 23.161904 -3.523338 -0.000001 -0.000000 0.000000 -0.000001 -0.000000 0.000000 -0.000001 -0.000000 0.000000 -0.000001 -0.000000 0.000000 -0.000001 0.000000 0.000000 -0.000001 -0.000000 0.000000 -0.000001 0.000000 0.000000 -0.000001 -0.000000 0.000000 -0.000001 -0.000000 0.000000 -1.875339 -16.181746 -2.870470 -10.644677 2.164771 -45.510654 -22.862392 -25.786247 -15.871690 2.491059 -2.511883 6.860508 18.457954 -9.513800 13.216572 -1.150197 11.255325 -8.400850 0.000004 0.000005 -0.000006 -1.232796 -5.771937 -0.192361 0.133957 -0.197651 -4.602118 0.000001 -0.000000 0.000002 1.884745 4.663372 -4.597420 0.476701 -1.009859 -12.986447 0.000003 0.000001 -0.000001 3.024631 7.938935 -14.103502 -0.708006 -0.566234 -18.895715 -0.000001 -0.000001 -0.000003 2.010394 6.305971 -22.386534 -0.815389 -0.210755 -16.746483 0.000003 -0.000001 0.000003 0.000001 -0.000001 -0.000000 -5.074771 24.344978 1.482928 6.642451 -34.735019 57.610419 -21.032058 44.833857 19.961755 -0.087231 35.608460 7.474301 55.149533 18.649534 -29.698260 -0.442542 -14.180537 7.313145 -0.000001 -0.000001 0.000000 5.673376 7.585017 36.844168 1.050452 3.824494 68.900257 0.000003 -0.000000 0.000000 -0.125701 1.886082 45.000783 -1.169011 3.204701 68.417663 0.000002 0.000000 -0.000002 -5.312021 1.216659 58.508828 -0.745202 1.667567 48.011254 0.000002 0.000001 -0.000001 -7.756792 -9.376481 47.264011 -0.526051 1.541597 45.600508 -0.000000 -0.000002 0.000004 0.000003 -0.000001 0.000001 -0.000001 0.000001 -0.000000 -0.000000 -0.000003 -0.000000 -0.000001 0.000001 -0.000000 -0.000001 0.000001 -0.000000 -0.000001 0.000001 -0.000000 -0.000000 -0.000003 -0.000000 -0.000001 0.000001 -0.000000 -0.000001 0.000001 -0.000000 -0.000001 0.000001 -0.000000 -0.000000 -0.000003 -0.000000 -0.000001 -0.000002 0.000000 -0.000001 -0.000002 0.000000 -0.000001 -0.000002 0.000000 
-0.761956 60.692299 0.666475 11.485160 -49.754971 10.983820 -0.000000 -0.000001 -0.000000 -62.133507 29.818338 41.789870 45.969892 -20.377308 3.225869 -1.020747 1.256171 -9.281646 0.000000 -0.000002 0.000000 -0.000000 0.000000 -0.000000 -32.401919 -1.782004 -23.422279 54.895460 2.426725 -6.871591 -29.924643 -3.005755 23.057240 0.000000 -0.000004 -0.000000 0.000001 -0.000002 -0.000001 10.947768 2.810091 -1.972215 5.917140 5.588680 -4.389564 -5.960385 6.358696 -3.163036 2.261335 9.594050 -0.194446 -3.771937 23.396936 -3.738609 -0.000000 -0.000000 0.000000 -0.000000 -0.000000 0.000000 -0.000000 -0.000000 0.000000 -0.000000 -0.000000 -0.000000 -0.000000 -0.000000 -0.000000 -0.000000 -0.000000 -0.000000 -0.000000 -0.000000 -0.000000 -0.000000 -0.000000 0.000000 -0.000000 -0.000000 0.000000 -1.850133 -16.049184 -2.794404 -9.956440 2.817344 -45.285899 -23.315180 -27.943277 -17.248430 2.184524 -1.065447 7.247043 18.457987 -9.513785 13.216599 -1.150188 11.255337 -8.400830 0.000002 0.000002 0.000002 -1.232779 -5.771929 -0.192347 0.133971 -0.197666 -4.602070 0.000003 -0.000000 -0.000000 1.884748 4.663381 -4.597384 0.476681 -1.009832 -12.986434 0.000001 0.000002 -0.000004 3.024629 7.938918 -14.103461 -0.708003 -0.566200 -18.895742 0.000001 -0.000000 0.000001 2.010422 6.305942 -22.386543 -0.815403 -0.210751 -16.746478 0.000005 0.000001 0.000001 0.000002 -0.000000 0.000001 -5.082252 24.342381 1.499008 5.825092 -34.063799 57.690175 -20.478451 43.293960 19.040909 0.231095 35.997156 7.762156 55.149533 18.649533 -29.698264 -0.442544 -14.180544 7.313142 -0.000000 0.000001 0.000002 5.673373 7.585016 36.844165 1.050452 3.824492 68.900250 0.000002 -0.000002 0.000002 -0.125705 1.886078 45.000773 -1.169013 3.204700 68.417670 0.000003 0.000001 -0.000001 -5.312024 1.216654 58.508828 -0.745202 1.667569 48.011254 -0.000001 0.000001 0.000001 -7.756797 -9.376484 47.264011 -0.526048 1.541604 45.600505 0.000002 0.000001 -0.000001 -0.000002 0.000001 -0.000002 0.000001 0.000003 -0.000000 0.000001 -0.000001 -0.000000 0.000001 0.000003 -0.000001 0.000001 0.000003 -0.000001 0.000001 0.000003 -0.000000 0.000001 -0.000001 0.000000 0.000001 0.000003 -0.000001 0.000001 0.000003 -0.000001 0.000001 0.000003 -0.000000 0.000001 -0.000001 0.000000 -0.000000 -0.000001 -0.000000 -0.000000 -0.000001 -0.000000 -0.000000 -0.000001 -0.000000 
-0.790473 60.739738 0.577466 11.351295 -50.102651 10.819693 -0.000001 -0.000001 -0.000000 -61.939830 29.867020 42.054066 45.667949 -20.302650 3.198312 -0.885426 1.285102 -9.439362 0.000000 -0.000000 0.000000 -0.000002 0.000001 0.000000 -32.430360 -1.856261 -23.264056 54.853557 2.612971 -6.854335 -29.845147 -2.795103 22.861364 0.000000 -0.000000 -0.000000 -0.000003 0.000001 -0.000002 10.923761 2.810909 -1.969590 5.754463 5.620909 -4.465460 -6.114668 6.395257 -3.246988 2.473464 9.737929 -0.469676 -4.007682 23.494367 -3.699871 -0.000000 -0.000000 -0.000000 -0.000000 -0.000000 -0.000000 -0.000000 -0.000000 -0.000000 -0.000000 -0.000000 -0.000001 -0.000000 -0.000000 -0.000000 -0.000000 -0.000000 -0.000001 -0.000000 -0.000000 -0.000000 -0.000000 -0.000000 -0.000000 -0.000000 -0.000000 -0.000000 -1.856188 -16.125030 -2.793416 -9.304252 3.610384 -44.990593 -23.777473 -29.920702 -18.575200 1.944020 0.057018 7.820654 18.457989 -9.513771 13.216605 -1.150191 11.255277 -8.400879 0.000001 0.000001 -0.000001 -1.232756 -5.771937 -0.192325 0.133945 -0.197685 -4.602114 0.000001 -0.000001 -0.000000 1.884742 4.663347 -4.597416 0.476688 -1.009828 -12.986403 0.000002 0.000003 -0.000006 3.024640 7.938896 -14.103484 -0.708016 -0.566205 -18.895752 -0.000001 -0.000002 -0.000002 2.010398 6.305952 -22.386507 -0.815364 -0.210743 -16.746488 0.000000 -0.000001 -0.000001 -0.000002 0.000002 -0.000002 -5.081652 24.149916 1.470717 7.290170 -35.178941 57.904493 -21.255098 45.591178 20.253123 -0.452716 34.561556 8.086120 55.149536 18.649536 -29.698260 -0.442542 -14.180537 7.313142 -0.000000 -0.000001 -0.000000 5.673373 7.585017 36.844165 1.050451 3.824497 68.900257 0.000002 -0.000002 0.000005 -0.125703 1.886076 45.000776 -1.169010 3.204698 68.417670 0.000000 -0.000001 0.000002 -5.312021 1.216656 58.508821 -0.745202 1.667569 48.011257 0.000002 0.000001 -0.000002 -7.756797 -9.376482 47.264011 -0.526050 1.541602 45.600508 -0.000000 0.000001 -0.000001 -0.000001 0.000004 -0.000002 -0.000000 0.000003 -0.000001 0.000001 -0.000001 -0.000000 -0.000000 0.000003 -0.000001 -0.000000 0.000003 -0.000001 -0.000000 0.000003 -0.000001 0.000001 -0.000001 0.000000 -0.000000 0.000003 -0.000001 -0.000000 0.000003 -0.000001 -0.000000 0.000003 -0.000001 0.000001 -0.000001 0.000000 -0.000001 -0.000001 -0.000000 -0.000001 -0.000001 -0.000000 -0.000001 -0.000001 -0.000000 
-0.821490 60.788246 0.491635 11.205525 -50.433338 10.681289 0.000000 -0.000003 0.000001 -61.675406 29.922512 42.203401 45.363572 -20.179912 3.236549 -0.762308 1.334911 -9.649482 -0.000000 0.000002 0.000000 0.000001 0.000000 -0.000000 -32.446499 -1.914435 -23.141593 54.817548 2.791806 -6.838051 -29.773642 -2.594918 22.672803 0.000000 0.000000 0.000000 -0.000001 0.000001 -0.000001 10.913229 2.799682 -1.976692 5.661719 5.628864 -4.526594 -6.202367 6.409817 -3.316668 2.263840 9.977097 -0.273083 -3.343279 23.780203 -4.097043 -0.000001 0.000000 0.000000 -0.000001 0.000000 0.000000 -0.000001 0.000000 -0.000000 -0.000001 0.000000 -0.000000 -0.000001 0.000000 -0.000000 -0.000001 0.000000 -0.000000 -0.000001 0.000000 -0.000000 -0.000001 0.000000 0.000000 -0.000001 0.000000 0.000000 -1.837232 -16.093994 -2.699862 -8.760475 4.176576 -44.764988 -24.203675 -31.576846 -19.708402 1.849835 0.895191 8.346070 18.457970 -9.513797 13.216583 -1.150184 11.255322 -8.400844 0.000004 0.000001 -0.000001 -1.232773 -5.771955 -0.192326 0.133957 -0.197659 -4.602137 0.000001 0.000001 -0.000002 1.884749 4.663375 -4.597423 0.476677 -1.009837 -12.986397 0.000004 -0.000002 0.000000 3.024647 7.938915 -14.103468 -0.707999 -0.566194 -18.895752 0.000000 -0.000001 -0.000003 2.010394 6.305942 -22.386549 -0.815364 -0.210750 -16.746481 0.000001 0.000002 0.000003 0.000000 -0.000002 0.000001 -5.039716 24.119906 1.323475 8.594051 -36.353955 58.117062 -22.083511 47.698469 21.417677 -0.802650 33.303825 8.194903 55.149529 18.649528 -29.698260 -0.442539 -14.180542 7.313143 0.000000 -0.000000 0.000003 5.673372 7.585016 36.844165 1.050451 3.824497 68.900257 0.000002 0.000001 0.000000 -0.125704 1.886081 45.000780 -1.169011 3.204704 68.417670 0.000000 0.000002 -0.000002 -5.312022 1.216656 58.508821 -0.745203 1.667566 48.011254 0.000001 0.000000 0.000001 -7.756796 -9.376485 47.264007 -0.526048 1.541603 45.600508 -0.000001 -0.000001 0.000000 0.000002 -0.000000 0.000001 0.000002 -0.000002 0.000000 0.000002 -0.000001 -0.000001 0.000002 -0.000002 -0.000000 0.000002 -0.000002 -0.000000 0.000002 -0.000002 0.000000 0.000002 -0.000001 -0.000000 0.000002 -0.000002 -0.000000 0.000002 -0.000002 -0.000000 0.000002 -0.000002 0.000000 0.000002 -0.000001 -0.000000 0.000000 -0.000003 0.000001 0.000000 -0.000003 0.000001 0.000000 -0.000003 0.000001 
